<svg xmlns="http://www.w3.org/2000/svg" viewBox="0 0 900 540" role="img" aria-label="Ecommerce shopping website illustration">
  <defs>
    <linearGradient id="bg" x1="0" y1="0" x2="1" y2="1">
      <stop offset="0%" stop-color="#eaf2ff"/>
      <stop offset="100%" stop-color="#f8fafc"/>
    </linearGradient>
    <linearGradient id="blue" x1="0" y1="0" x2="1" y2="1">
      <stop offset="0%" stop-color="#2170e4"/>
      <stop offset="100%" stop-color="#004395"/>
    </linearGradient>
    <filter id="shadow" x="-20%" y="-20%" width="140%" height="140%">
      <feDropShadow dx="0" dy="16" stdDeviation="16" flood-color="#0f172a" flood-opacity="0.14"/>
    </filter>
  </defs>
  <rect width="900" height="540" fill="url(#bg)"/>
  <circle cx="760" cy="105" r="70" fill="#d8e3fb"/>
  <circle cx="145" cy="435" r="90" fill="#d8e2ff" opacity=".8"/>
  <g filter="url(#shadow)">
    <rect x="150" y="92" width="600" height="356" rx="28" fill="#ffffff"/>
    <rect x="150" y="92" width="600" height="72" rx="28" fill="#091426"/>
    <circle cx="190" cy="128" r="8" fill="#ef4444"/>
    <circle cx="218" cy="128" r="8" fill="#f59e0b"/>
    <circle cx="246" cy="128" r="8" fill="#22c55e"/>
    <rect x="495" y="116" width="205" height="24" rx="12" fill="#ffffff" opacity=".18"/>
    <g transform="translate(204 210)">
      <rect x="0" y="0" width="125" height="145" rx="18" fill="#f8fafc" stroke="#cbd5e1"/>
      <rect x="23" y="28" width="79" height="54" rx="12" fill="#d8e3fb"/>
      <rect x="25" y="98" width="75" height="12" rx="6" fill="#334155" opacity=".75"/>
      <rect x="25" y="120" width="55" height="12" rx="6" fill="#2170e4"/>
    </g>
    <g transform="translate(388 210)">
      <rect x="0" y="0" width="125" height="145" rx="18" fill="#f8fafc" stroke="#cbd5e1"/>
      <rect x="23" y="28" width="79" height="54" rx="12" fill="#adc6ff"/>
      <rect x="25" y="98" width="75" height="12" rx="6" fill="#334155" opacity=".75"/>
      <rect x="25" y="120" width="55" height="12" rx="6" fill="#2170e4"/>
    </g>
    <g transform="translate(572 210)">
      <rect x="0" y="0" width="125" height="145" rx="18" fill="#f8fafc" stroke="#cbd5e1"/>
      <rect x="23" y="28" width="79" height="54" rx="12" fill="#6ffbbe" opacity=".75"/>
      <rect x="25" y="98" width="75" height="12" rx="6" fill="#334155" opacity=".75"/>
      <rect x="25" y="120" width="55" height="12" rx="6" fill="#2170e4"/>
    </g>
    <g transform="translate(640 170)">
      <circle cx="42" cy="42" r="42" fill="url(#blue)"/>
      <path d="M25 29h7l7 33h29l7-23H40" fill="none" stroke="#fff" stroke-width="6" stroke-linecap="round" stroke-linejoin="round"/>
      <circle cx="45" cy="70" r="4" fill="#fff"/>
      <circle cx="66" cy="70" r="4" fill="#fff"/>
    </g>
  </g>
</svg>